<?xml version="1.0" encoding="utf-8"?>
<!-- Generator: Adobe Illustrator 25.1.0, SVG Export Plug-In . SVG Version: 6.00 Build 0)  -->
<svg version="1.1" id="Слой_1" xmlns="http://www.w3.org/2000/svg" xmlns:xlink="http://www.w3.org/1999/xlink" x="0px" y="0px"
	 viewBox="0 0 63 64" style="enable-background:new 0 0 63 64;" xml:space="preserve">
<style type="text/css">
	.st0{fill:#FFFFFF;}
	.st1{fill-rule:evenodd;clip-rule:evenodd;fill:#AECBFA;}
	.st2{fill-rule:evenodd;clip-rule:evenodd;fill:#669DF6;}
	.st3{fill-rule:evenodd;clip-rule:evenodd;fill:#4285F4;}
</style>
<circle class="st0" cx="31.5" cy="32" r="31.1"/>
<g id="Shape">
	<polygon class="st1" points="16.6,28.9 16.6,35 31.5,42.9 31.5,36.8 	"/>
	<polygon class="st1" points="16.6,38.3 16.6,44.4 31.5,52.3 31.5,46.2 	"/>
	<polygon class="st2" points="31.5,42.9 46.4,35 46.4,28.9 31.5,36.8 	"/>
	<polygon class="st2" points="31.5,52.3 46.4,44.4 46.4,38.3 31.5,46.2 	"/>
	<polygon class="st3" points="46.4,25.7 46.4,19.6 31.5,11.7 31.5,17.8 	"/>
	<polygon class="st2" points="31.5,11.7 16.6,19.6 16.6,25.7 31.5,17.8 	"/>
	<polygon class="st1" points="16.6,19.5 16.6,25.7 31.5,33.6 31.5,27.5 	"/>
	<polygon class="st2" points="31.5,33.6 46.4,25.7 46.4,19.5 31.5,27.5 	"/>
</g>
</svg>
